<?xml version="1.0" encoding="UTF-8" standalone="no"?>
<!DOCTYPE svg PUBLIC "-//W3C//DTD SVG 1.1//EN"
 "http://www.w3.org/Graphics/SVG/1.1/DTD/svg11.dtd">
<!-- Generated by graphviz version 2.43.0 (0)
 -->
<!-- Title: G Pages: 1 -->
<svg width="1108pt" height="545pt"
 viewBox="0.00 0.00 1108.00 545.00" xmlns="http://www.w3.org/2000/svg" xmlns:xlink="http://www.w3.org/1999/xlink">
<g id="graph0" class="graph" transform="scale(1 1) rotate(0) translate(4 541)">
<title>G</title>
<polygon fill="white" stroke="transparent" points="-4,4 -4,-541 1104,-541 1104,4 -4,4"/>
<g id="clust1" class="cluster">
<title>cluster_root</title>
<g id="a_clust1"><a xlink:title="eventq_index=0&#10;full_system=false&#10;sim_quantum=0&#10;time_sync_enable=false&#10;time_sync_period=100000000000&#10;time_sync_spin_threshold=100000000">
<path fill="#bab6ae" stroke="#000000" d="M20,-8C20,-8 1080,-8 1080,-8 1086,-8 1092,-14 1092,-20 1092,-20 1092,-517 1092,-517 1092,-523 1086,-529 1080,-529 1080,-529 20,-529 20,-529 14,-529 8,-523 8,-517 8,-517 8,-20 8,-20 8,-14 14,-8 20,-8"/>
<text text-anchor="middle" x="550" y="-513.8" font-family="Arial" font-size="14.00" fill="#000000">root </text>
<text text-anchor="middle" x="550" y="-498.8" font-family="Arial" font-size="14.00" fill="#000000">: Root</text>
</a>
</g>
</g>
<g id="clust2" class="cluster">
<title>cluster_system</title>
<g id="a_clust2"><a xlink:title="auto_unlink_shared_backstore=false&#10;cache_line_size=64&#10;eventq_index=0&#10;exit_on_work_items=false&#10;init_param=0&#10;m5ops_base=0&#10;mem_mode=timing&#10;mem_ranges=0:536870912&#10;memories=system.mem_ctrls.dram&#10;mmap_using_noreserve=false&#10;multi_thread=false&#10;&#10;um_work_ids=16&#10;&#13;eadfile=&#10;&#13;edirect_paths=system.redirect_paths0 system.redirect_paths1 system.redirect_paths2&#10;shadow_rom_ranges=&#10;shared_backstore=&#10;symbolfile=&#10;thermal_components=&#10;thermal_model=Null&#10;work_begin_ckpt_count=0&#10;work_begin_cpu_id_exit=&#45;1&#10;work_begin_exit_count=0&#10;work_cpus_ckpt_count=0&#10;work_end_ckpt_count=0&#10;work_end_exit_count=0&#10;work_item_id=&#45;1&#10;workload=system.workload">
<path fill="#e4e7eb" stroke="#000000" d="M28,-16C28,-16 1072,-16 1072,-16 1078,-16 1084,-22 1084,-28 1084,-28 1084,-471 1084,-471 1084,-477 1078,-483 1072,-483 1072,-483 28,-483 28,-483 22,-483 16,-477 16,-471 16,-471 16,-28 16,-28 16,-22 22,-16 28,-16"/>
<text text-anchor="middle" x="550" y="-467.8" font-family="Arial" font-size="14.00" fill="#000000">system </text>
<text text-anchor="middle" x="550" y="-452.8" font-family="Arial" font-size="14.00" fill="#000000">: System</text>
</a>
</g>
</g>
<g id="clust4" class="cluster">
<title>cluster_system_cpu</title>
<g id="a_clust4"><a xlink:title="branchPred=system.cpu.branchPred&#10;checker=Null&#10;clk_domain=system.cpu_clk_domain&#10;cpu_id=0&#10;decodeCycleInput=true&#10;decodeInputBufferSize=3&#10;decodeInputWidth=2&#10;decodeToExecuteForwardDelay=1&#10;decoder=system.cpu.decoder&#10;do_checkpoint_insts=true&#10;do_statistics_insts=true&#10;enableIdling=true&#10;eventq_index=0&#10;executeAllowEarlyMemoryIssue=true&#10;executeBranchDelay=1&#10;executeCommitLimit=2&#10;executeCycleInput=true&#10;executeFuncUnits=system.cpu.executeFuncUnits&#10;executeInputBufferSize=7&#10;executeInputWidth=2&#10;executeIssueLimit=2&#10;executeLSQMaxStoreBufferStoresPerCycle=2&#10;executeLSQRequestsQueueSize=1&#10;executeLSQStoreBufferSize=5&#10;executeLSQTransfersQueueSize=2&#10;executeMaxAccessesInMemory=2&#10;executeMemoryCommitLimit=1&#10;executeMemoryIssueLimit=1&#10;executeMemoryWidth=0&#10;executeSetTraceTimeOnCommit=true&#10;executeSetTraceTimeOnIssue=false&#10;fetch1FetchLimit=1&#10;fetch1LineSnapWidth=0&#10;fetch1LineWidth=0&#10;fetch1ToFetch2BackwardDelay=1&#10;fetch1ToFetch2ForwardDelay=1&#10;fetch2CycleInput=true&#10;fetch2InputBufferSize=2&#10;fetch2ToDecodeForwardDelay=1&#10;function_trace=false&#10;function_trace_start=0&#10;interrupts=system.cpu.interrupts&#10;isa=system.cpu.isa&#10;max_insts_all_threads=0&#10;max_insts_any_thread=0&#10;mmu=system.cpu.mmu&#10;&#10;umThreads=1&#10;power_gating_on_idle=false&#10;power_model=&#10;power_state=system.cpu.power_state&#10;progress_interval=0&#10;pwr_gating_latency=300&#10;simpoint_start_insts=&#10;socket_id=0&#10;switched_out=false&#10;syscallRetryLatency=10000&#10;system=system&#10;threadPolicy=RoundRobin&#10;tracer=system.cpu.tracer&#10;workload=system.cpu.workload">
<path fill="#bbc6d9" stroke="#000000" d="M304,-24C304,-24 1064,-24 1064,-24 1070,-24 1076,-30 1076,-36 1076,-36 1076,-380 1076,-380 1076,-386 1070,-392 1064,-392 1064,-392 304,-392 304,-392 298,-392 292,-386 292,-380 292,-380 292,-36 292,-36 292,-30 298,-24 304,-24"/>
<text text-anchor="middle" x="684" y="-376.8" font-family="Arial" font-size="14.00" fill="#000000">cpu </text>
<text text-anchor="middle" x="684" y="-361.8" font-family="Arial" font-size="14.00" fill="#000000">: RiscvMinorCPU</text>
</a>
</g>
</g>
<g id="clust5" class="cluster">
<title>cluster_system_cpu_mmu</title>
<g id="a_clust5"><a xlink:title="dtb=system.cpu.mmu.dtb&#10;eventq_index=0&#10;itb=system.cpu.mmu.itb&#10;pma_checker=system.cpu.mmu.pma_checker&#10;pmp=system.cpu.mmu.pmp">
<path fill="#bab6ae" stroke="#000000" d="M704,-147C704,-147 1056,-147 1056,-147 1062,-147 1068,-153 1068,-159 1068,-159 1068,-334 1068,-334 1068,-340 1062,-346 1056,-346 1056,-346 704,-346 704,-346 698,-346 692,-340 692,-334 692,-334 692,-159 692,-159 692,-153 698,-147 704,-147"/>
<text text-anchor="middle" x="880" y="-330.8" font-family="Arial" font-size="14.00" fill="#000000">mmu </text>
<text text-anchor="middle" x="880" y="-315.8" font-family="Arial" font-size="14.00" fill="#000000">: RiscvMMU</text>
</a>
</g>
</g>
<g id="clust6" class="cluster">
<title>cluster_system_cpu_mmu_itb</title>
<g id="a_clust6"><a xlink:title="entry_type=instruction&#10;eventq_index=0&#10;&#10;ext_level=Null&#10;pma_checker=system.cpu.mmu.pma_checker&#10;pmp=system.cpu.mmu.pmp&#10;size=64&#10;walker=system.cpu.mmu.itb.walker">
<path fill="#9f9c95" stroke="#000000" d="M712,-155C712,-155 864,-155 864,-155 870,-155 876,-161 876,-167 876,-167 876,-288 876,-288 876,-294 870,-300 864,-300 864,-300 712,-300 712,-300 706,-300 700,-294 700,-288 700,-288 700,-167 700,-167 700,-161 706,-155 712,-155"/>
<text text-anchor="middle" x="788" y="-284.8" font-family="Arial" font-size="14.00" fill="#000000">itb </text>
<text text-anchor="middle" x="788" y="-269.8" font-family="Arial" font-size="14.00" fill="#000000">: RiscvTLB</text>
</a>
</g>
</g>
<g id="clust7" class="cluster">
<title>cluster_system_cpu_mmu_itb_walker</title>
<g id="a_clust7"><a xlink:title="clk_domain=system.cpu_clk_domain&#10;eventq_index=0&#10;&#10;um_squash_per_cycle=4&#10;pma_checker=system.cpu.mmu.pma_checker&#10;pmp=system.cpu.mmu.pmp&#10;power_model=&#10;power_state=system.cpu.mmu.itb.walker.power_state&#10;system=system">
<path fill="#84827c" stroke="#000000" d="M720,-163C720,-163 856,-163 856,-163 862,-163 868,-169 868,-175 868,-175 868,-242 868,-242 868,-248 862,-254 856,-254 856,-254 720,-254 720,-254 714,-254 708,-248 708,-242 708,-242 708,-175 708,-175 708,-169 714,-163 720,-163"/>
<text text-anchor="middle" x="788" y="-238.8" font-family="Arial" font-size="14.00" fill="#000000">walker </text>
<text text-anchor="middle" x="788" y="-223.8" font-family="Arial" font-size="14.00" fill="#000000">: RiscvPagetableWalker</text>
</a>
</g>
</g>
<g id="clust9" class="cluster">
<title>cluster_system_cpu_mmu_dtb</title>
<g id="a_clust9"><a xlink:title="entry_type=data&#10;eventq_index=0&#10;&#10;ext_level=Null&#10;pma_checker=system.cpu.mmu.pma_checker&#10;pmp=system.cpu.mmu.pmp&#10;size=64&#10;walker=system.cpu.mmu.dtb.walker">
<path fill="#9f9c95" stroke="#000000" d="M896,-155C896,-155 1048,-155 1048,-155 1054,-155 1060,-161 1060,-167 1060,-167 1060,-288 1060,-288 1060,-294 1054,-300 1048,-300 1048,-300 896,-300 896,-300 890,-300 884,-294 884,-288 884,-288 884,-167 884,-167 884,-161 890,-155 896,-155"/>
<text text-anchor="middle" x="972" y="-284.8" font-family="Arial" font-size="14.00" fill="#000000">dtb </text>
<text text-anchor="middle" x="972" y="-269.8" font-family="Arial" font-size="14.00" fill="#000000">: RiscvTLB</text>
</a>
</g>
</g>
<g id="clust10" class="cluster">
<title>cluster_system_cpu_mmu_dtb_walker</title>
<g id="a_clust10"><a xlink:title="clk_domain=system.cpu_clk_domain&#10;eventq_index=0&#10;&#10;um_squash_per_cycle=4&#10;pma_checker=system.cpu.mmu.pma_checker&#10;pmp=system.cpu.mmu.pmp&#10;power_model=&#10;power_state=system.cpu.mmu.dtb.walker.power_state&#10;system=system">
<path fill="#84827c" stroke="#000000" d="M904,-163C904,-163 1040,-163 1040,-163 1046,-163 1052,-169 1052,-175 1052,-175 1052,-242 1052,-242 1052,-248 1046,-254 1040,-254 1040,-254 904,-254 904,-254 898,-254 892,-248 892,-242 892,-242 892,-175 892,-175 892,-169 898,-163 904,-163"/>
<text text-anchor="middle" x="972" y="-238.8" font-family="Arial" font-size="14.00" fill="#000000">walker </text>
<text text-anchor="middle" x="972" y="-223.8" font-family="Arial" font-size="14.00" fill="#000000">: RiscvPagetableWalker</text>
</a>
</g>
</g>
<g id="clust103" class="cluster">
<title>cluster_system_cpu_icache</title>
<g id="a_clust103"><a xlink:title="addr_ranges=0:18446744073709551615&#10;assoc=2&#10;clk_domain=system.cpu_clk_domain&#10;clusivity=mostly_incl&#10;compressor=Null&#10;data_latency=2&#10;demand_mshr_reserve=1&#10;eventq_index=0&#10;is_read_only=true&#10;max_miss_count=0&#10;move_contractions=true&#10;mshrs=4&#10;power_model=&#10;power_state=system.cpu.icache.power_state&#10;prefetch_on_access=false&#10;prefetch_on_pf_hit=false&#10;prefetcher=Null&#10;&#13;eplace_expansions=true&#10;&#13;eplacement_policy=system.cpu.icache.replacement_policy&#10;&#13;esponse_latency=2&#10;sequential_access=false&#10;size=16384&#10;system=system&#10;tag_latency=2&#10;tags=system.cpu.icache.tags&#10;tgts_per_mshr=20&#10;warmup_percentage=0&#10;write_allocator=Null&#10;write_buffers=8&#10;writeback_clean=true">
<path fill="#bab6ae" stroke="#000000" d="M506,-32C506,-32 668,-32 668,-32 674,-32 680,-38 680,-44 680,-44 680,-111 680,-111 680,-117 674,-123 668,-123 668,-123 506,-123 506,-123 500,-123 494,-117 494,-111 494,-111 494,-44 494,-44 494,-38 500,-32 506,-32"/>
<text text-anchor="middle" x="587" y="-107.8" font-family="Arial" font-size="14.00" fill="#000000">icache </text>
<text text-anchor="middle" x="587" y="-92.8" font-family="Arial" font-size="14.00" fill="#000000">: L1_ICache</text>
</a>
</g>
</g>
<g id="clust109" class="cluster">
<title>cluster_system_cpu_dcache</title>
<g id="a_clust109"><a xlink:title="addr_ranges=0:18446744073709551615&#10;assoc=2&#10;clk_domain=system.cpu_clk_domain&#10;clusivity=mostly_incl&#10;compressor=Null&#10;data_latency=2&#10;demand_mshr_reserve=1&#10;eventq_index=0&#10;is_read_only=false&#10;max_miss_count=0&#10;move_contractions=true&#10;mshrs=4&#10;power_model=&#10;power_state=system.cpu.dcache.power_state&#10;prefetch_on_access=false&#10;prefetch_on_pf_hit=false&#10;prefetcher=Null&#10;&#13;eplace_expansions=true&#10;&#13;eplacement_policy=system.cpu.dcache.replacement_policy&#10;&#13;esponse_latency=2&#10;sequential_access=false&#10;size=32768&#10;system=system&#10;tag_latency=2&#10;tags=system.cpu.dcache.tags&#10;tgts_per_mshr=20&#10;warmup_percentage=0&#10;write_allocator=Null&#10;write_buffers=8&#10;writeback_clean=false">
<path fill="#bab6ae" stroke="#000000" d="M312,-32C312,-32 474,-32 474,-32 480,-32 486,-38 486,-44 486,-44 486,-111 486,-111 486,-117 480,-123 474,-123 474,-123 312,-123 312,-123 306,-123 300,-117 300,-111 300,-111 300,-44 300,-44 300,-38 306,-32 312,-32"/>
<text text-anchor="middle" x="393" y="-107.8" font-family="Arial" font-size="14.00" fill="#000000">dcache </text>
<text text-anchor="middle" x="393" y="-92.8" font-family="Arial" font-size="14.00" fill="#000000">: L1_DCache</text>
</a>
</g>
</g>
<g id="clust115" class="cluster">
<title>cluster_system_cpu_itb_walker_cache</title>
<g id="a_clust115"><a xlink:title="addr_ranges=0:18446744073709551615&#10;assoc=2&#10;clk_domain=system.cpu_clk_domain&#10;clusivity=mostly_incl&#10;compressor=Null&#10;data_latency=2&#10;demand_mshr_reserve=1&#10;eventq_index=0&#10;is_read_only=false&#10;max_miss_count=0&#10;move_contractions=true&#10;mshrs=10&#10;power_model=&#10;power_state=system.cpu.itb_walker_cache.power_state&#10;prefetch_on_access=false&#10;prefetch_on_pf_hit=false&#10;prefetcher=Null&#10;&#13;eplace_expansions=true&#10;&#13;eplacement_policy=system.cpu.itb_walker_cache.replacement_policy&#10;&#13;esponse_latency=2&#10;sequential_access=false&#10;size=1024&#10;system=system&#10;tag_latency=2&#10;tags=system.cpu.itb_walker_cache.tags&#10;tgts_per_mshr=12&#10;warmup_percentage=0&#10;write_allocator=Null&#10;write_buffers=8&#10;writeback_clean=false">
<path fill="#bab6ae" stroke="#000000" d="M700,-32C700,-32 862,-32 862,-32 868,-32 874,-38 874,-44 874,-44 874,-111 874,-111 874,-117 868,-123 862,-123 862,-123 700,-123 700,-123 694,-123 688,-117 688,-111 688,-111 688,-44 688,-44 688,-38 694,-32 700,-32"/>
<text text-anchor="middle" x="781" y="-107.8" font-family="Arial" font-size="14.00" fill="#000000">itb_walker_cache </text>
<text text-anchor="middle" x="781" y="-92.8" font-family="Arial" font-size="14.00" fill="#000000">: PageTableWalkerCache</text>
</a>
</g>
</g>
<g id="clust121" class="cluster">
<title>cluster_system_cpu_dtb_walker_cache</title>
<g id="a_clust121"><a xlink:title="addr_ranges=0:18446744073709551615&#10;assoc=2&#10;clk_domain=system.cpu_clk_domain&#10;clusivity=mostly_incl&#10;compressor=Null&#10;data_latency=2&#10;demand_mshr_reserve=1&#10;eventq_index=0&#10;is_read_only=false&#10;max_miss_count=0&#10;move_contractions=true&#10;mshrs=10&#10;power_model=&#10;power_state=system.cpu.dtb_walker_cache.power_state&#10;prefetch_on_access=false&#10;prefetch_on_pf_hit=false&#10;prefetcher=Null&#10;&#13;eplace_expansions=true&#10;&#13;eplacement_policy=system.cpu.dtb_walker_cache.replacement_policy&#10;&#13;esponse_latency=2&#10;sequential_access=false&#10;size=1024&#10;system=system&#10;tag_latency=2&#10;tags=system.cpu.dtb_walker_cache.tags&#10;tgts_per_mshr=12&#10;warmup_percentage=0&#10;write_allocator=Null&#10;write_buffers=8&#10;writeback_clean=false">
<path fill="#bab6ae" stroke="#000000" d="M894,-32C894,-32 1056,-32 1056,-32 1062,-32 1068,-38 1068,-44 1068,-44 1068,-111 1068,-111 1068,-117 1062,-123 1056,-123 1056,-123 894,-123 894,-123 888,-123 882,-117 882,-111 882,-111 882,-44 882,-44 882,-38 888,-32 894,-32"/>
<text text-anchor="middle" x="975" y="-107.8" font-family="Arial" font-size="14.00" fill="#000000">dtb_walker_cache </text>
<text text-anchor="middle" x="975" y="-92.8" font-family="Arial" font-size="14.00" fill="#000000">: PageTableWalkerCache</text>
</a>
</g>
</g>
<g id="clust132" class="cluster">
<title>cluster_system_membus</title>
<g id="a_clust132"><a xlink:title="clk_domain=system.clk_domain&#10;eventq_index=0&#10;forward_latency=4&#10;frontend_latency=3&#10;header_latency=1&#10;max_outstanding_snoops=512&#10;max_routing_table_size=512&#10;point_of_coherency=true&#10;point_of_unification=true&#10;power_model=&#10;power_state=system.membus.power_state&#10;&#13;esponse_latency=2&#10;snoop_filter=system.membus.snoop_filter&#10;snoop_response_latency=4&#10;system=system&#10;use_default_range=false&#10;width=16">
<path fill="#6f798c" stroke="#000000" d="M36,-163C36,-163 272,-163 272,-163 278,-163 284,-169 284,-175 284,-175 284,-242 284,-242 284,-248 278,-254 272,-254 272,-254 36,-254 36,-254 30,-254 24,-248 24,-242 24,-242 24,-175 24,-175 24,-169 30,-163 36,-163"/>
<text text-anchor="middle" x="154" y="-238.8" font-family="Arial" font-size="14.00" fill="#000000">membus </text>
<text text-anchor="middle" x="154" y="-223.8" font-family="Arial" font-size="14.00" fill="#000000">: SystemXBar</text>
</a>
</g>
</g>
<g id="clust135" class="cluster">
<title>cluster_system_mem_ctrls</title>
<g id="a_clust135"><a xlink:title="clk_domain=system.clk_domain&#10;command_window=10000&#10;dram=system.mem_ctrls.dram&#10;eventq_index=0&#10;mem_sched_policy=frfcfs&#10;min_reads_per_switch=16&#10;min_writes_per_switch=16&#10;power_model=&#10;power_state=system.mem_ctrls.power_state&#10;qos_policy=Null&#10;qos_priorities=1&#10;qos_priority_escalation=false&#10;qos_q_policy=fifo&#10;qos_requestors= &#160;&#160;&#160;&#160;&#160;&#160;&#160;&#160;&#160;&#160;&#160;&#160;&#160;&#160;&#10;qos_syncro_scheduler=false&#10;qos_turnaround_policy=Null&#10;static_backend_latency=10000&#10;static_frontend_latency=10000&#10;system=system&#10;write_high_thresh_perc=85&#10;write_low_thresh_perc=50">
<path fill="#bab6ae" stroke="#000000" d="M61,-32C61,-32 121,-32 121,-32 127,-32 133,-38 133,-44 133,-44 133,-111 133,-111 133,-117 127,-123 121,-123 121,-123 61,-123 61,-123 55,-123 49,-117 49,-111 49,-111 49,-44 49,-44 49,-38 55,-32 61,-32"/>
<text text-anchor="middle" x="91" y="-107.8" font-family="Arial" font-size="14.00" fill="#000000">mem_ctrls </text>
<text text-anchor="middle" x="91" y="-92.8" font-family="Arial" font-size="14.00" fill="#000000">: MemCtrl</text>
</a>
</g>
</g>
<!-- system_system_port -->
<g id="node1" class="node">
<title>system_system_port</title>
<path fill="#b6b8bc" stroke="#000000" d="M188.5,-400.5C188.5,-400.5 255.5,-400.5 255.5,-400.5 261.5,-400.5 267.5,-406.5 267.5,-412.5 267.5,-412.5 267.5,-424.5 267.5,-424.5 267.5,-430.5 261.5,-436.5 255.5,-436.5 255.5,-436.5 188.5,-436.5 188.5,-436.5 182.5,-436.5 176.5,-430.5 176.5,-424.5 176.5,-424.5 176.5,-412.5 176.5,-412.5 176.5,-406.5 182.5,-400.5 188.5,-400.5"/>
<text text-anchor="middle" x="222" y="-414.8" font-family="Arial" font-size="14.00" fill="#000000">system_port</text>
</g>
<!-- system_membus_cpu_side_ports -->
<g id="node14" class="node">
<title>system_membus_cpu_side_ports</title>
<path fill="#586070" stroke="#000000" d="M180,-171.5C180,-171.5 264,-171.5 264,-171.5 270,-171.5 276,-177.5 276,-183.5 276,-183.5 276,-195.5 276,-195.5 276,-201.5 270,-207.5 264,-207.5 264,-207.5 180,-207.5 180,-207.5 174,-207.5 168,-201.5 168,-195.5 168,-195.5 168,-183.5 168,-183.5 168,-177.5 174,-171.5 180,-171.5"/>
<text text-anchor="middle" x="222" y="-185.8" font-family="Arial" font-size="14.00" fill="#000000">cpu_side_ports</text>
</g>
<!-- system_system_port&#45;&gt;system_membus_cpu_side_ports -->
<g id="edge1" class="edge">
<title>system_system_port&#45;&gt;system_membus_cpu_side_ports</title>
<path fill="none" stroke="black" d="M222,-400.44C222,-361.41 222,-265.35 222,-217.91"/>
<polygon fill="black" stroke="black" points="225.5,-217.76 222,-207.76 218.5,-217.76 225.5,-217.76"/>
</g>
<!-- system_cpu_icache_port -->
<g id="node2" class="node">
<title>system_cpu_icache_port</title>
<path fill="#959ead" stroke="#000000" d="M605,-171.5C605,-171.5 667,-171.5 667,-171.5 673,-171.5 679,-177.5 679,-183.5 679,-183.5 679,-195.5 679,-195.5 679,-201.5 673,-207.5 667,-207.5 667,-207.5 605,-207.5 605,-207.5 599,-207.5 593,-201.5 593,-195.5 593,-195.5 593,-183.5 593,-183.5 593,-177.5 599,-171.5 605,-171.5"/>
<text text-anchor="middle" x="636" y="-185.8" font-family="Arial" font-size="14.00" fill="#000000">icache_port</text>
</g>
<!-- system_cpu_icache_cpu_side -->
<g id="node6" class="node">
<title>system_cpu_icache_cpu_side</title>
<path fill="#94918b" stroke="#000000" d="M612.5,-40.5C612.5,-40.5 659.5,-40.5 659.5,-40.5 665.5,-40.5 671.5,-46.5 671.5,-52.5 671.5,-52.5 671.5,-64.5 671.5,-64.5 671.5,-70.5 665.5,-76.5 659.5,-76.5 659.5,-76.5 612.5,-76.5 612.5,-76.5 606.5,-76.5 600.5,-70.5 600.5,-64.5 600.5,-64.5 600.5,-52.5 600.5,-52.5 600.5,-46.5 606.5,-40.5 612.5,-40.5"/>
<text text-anchor="middle" x="636" y="-54.8" font-family="Arial" font-size="14.00" fill="#000000">cpu_side</text>
</g>
<!-- system_cpu_icache_port&#45;&gt;system_cpu_icache_cpu_side -->
<g id="edge2" class="edge">
<title>system_cpu_icache_port&#45;&gt;system_cpu_icache_cpu_side</title>
<path fill="none" stroke="black" d="M636,-171.37C636,-149.78 636,-112.41 636,-86.85"/>
<polygon fill="black" stroke="black" points="639.5,-86.7 636,-76.7 632.5,-86.7 639.5,-86.7"/>
</g>
<!-- system_cpu_dcache_port -->
<g id="node3" class="node">
<title>system_cpu_dcache_port</title>
<path fill="#959ead" stroke="#000000" d="M408.5,-171.5C408.5,-171.5 475.5,-171.5 475.5,-171.5 481.5,-171.5 487.5,-177.5 487.5,-183.5 487.5,-183.5 487.5,-195.5 487.5,-195.5 487.5,-201.5 481.5,-207.5 475.5,-207.5 475.5,-207.5 408.5,-207.5 408.5,-207.5 402.5,-207.5 396.5,-201.5 396.5,-195.5 396.5,-195.5 396.5,-183.5 396.5,-183.5 396.5,-177.5 402.5,-171.5 408.5,-171.5"/>
<text text-anchor="middle" x="442" y="-185.8" font-family="Arial" font-size="14.00" fill="#000000">dcache_port</text>
</g>
<!-- system_cpu_dcache_cpu_side -->
<g id="node8" class="node">
<title>system_cpu_dcache_cpu_side</title>
<path fill="#94918b" stroke="#000000" d="M418.5,-40.5C418.5,-40.5 465.5,-40.5 465.5,-40.5 471.5,-40.5 477.5,-46.5 477.5,-52.5 477.5,-52.5 477.5,-64.5 477.5,-64.5 477.5,-70.5 471.5,-76.5 465.5,-76.5 465.5,-76.5 418.5,-76.5 418.5,-76.5 412.5,-76.5 406.5,-70.5 406.5,-64.5 406.5,-64.5 406.5,-52.5 406.5,-52.5 406.5,-46.5 412.5,-40.5 418.5,-40.5"/>
<text text-anchor="middle" x="442" y="-54.8" font-family="Arial" font-size="14.00" fill="#000000">cpu_side</text>
</g>
<!-- system_cpu_dcache_port&#45;&gt;system_cpu_dcache_cpu_side -->
<g id="edge3" class="edge">
<title>system_cpu_dcache_port&#45;&gt;system_cpu_dcache_cpu_side</title>
<path fill="none" stroke="black" d="M442,-171.37C442,-149.78 442,-112.41 442,-86.85"/>
<polygon fill="black" stroke="black" points="445.5,-86.7 442,-76.7 438.5,-86.7 445.5,-86.7"/>
</g>
<!-- system_cpu_mmu_itb_walker_port -->
<g id="node4" class="node">
<title>system_cpu_mmu_itb_walker_port</title>
<path fill="#6a6863" stroke="#000000" d="M815,-171.5C815,-171.5 845,-171.5 845,-171.5 851,-171.5 857,-177.5 857,-183.5 857,-183.5 857,-195.5 857,-195.5 857,-201.5 851,-207.5 845,-207.5 845,-207.5 815,-207.5 815,-207.5 809,-207.5 803,-201.5 803,-195.5 803,-195.5 803,-183.5 803,-183.5 803,-177.5 809,-171.5 815,-171.5"/>
<text text-anchor="middle" x="830" y="-185.8" font-family="Arial" font-size="14.00" fill="#000000">port</text>
</g>
<!-- system_cpu_itb_walker_cache_cpu_side -->
<g id="node10" class="node">
<title>system_cpu_itb_walker_cache_cpu_side</title>
<path fill="#94918b" stroke="#000000" d="M806.5,-40.5C806.5,-40.5 853.5,-40.5 853.5,-40.5 859.5,-40.5 865.5,-46.5 865.5,-52.5 865.5,-52.5 865.5,-64.5 865.5,-64.5 865.5,-70.5 859.5,-76.5 853.5,-76.5 853.5,-76.5 806.5,-76.5 806.5,-76.5 800.5,-76.5 794.5,-70.5 794.5,-64.5 794.5,-64.5 794.5,-52.5 794.5,-52.5 794.5,-46.5 800.5,-40.5 806.5,-40.5"/>
<text text-anchor="middle" x="830" y="-54.8" font-family="Arial" font-size="14.00" fill="#000000">cpu_side</text>
</g>
<!-- system_cpu_mmu_itb_walker_port&#45;&gt;system_cpu_itb_walker_cache_cpu_side -->
<g id="edge4" class="edge">
<title>system_cpu_mmu_itb_walker_port&#45;&gt;system_cpu_itb_walker_cache_cpu_side</title>
<path fill="none" stroke="black" d="M830,-171.37C830,-149.78 830,-112.41 830,-86.85"/>
<polygon fill="black" stroke="black" points="833.5,-86.7 830,-76.7 826.5,-86.7 833.5,-86.7"/>
</g>
<!-- system_cpu_mmu_dtb_walker_port -->
<g id="node5" class="node">
<title>system_cpu_mmu_dtb_walker_port</title>
<path fill="#6a6863" stroke="#000000" d="M1002,-171.5C1002,-171.5 1032,-171.5 1032,-171.5 1038,-171.5 1044,-177.5 1044,-183.5 1044,-183.5 1044,-195.5 1044,-195.5 1044,-201.5 1038,-207.5 1032,-207.5 1032,-207.5 1002,-207.5 1002,-207.5 996,-207.5 990,-201.5 990,-195.5 990,-195.5 990,-183.5 990,-183.5 990,-177.5 996,-171.5 1002,-171.5"/>
<text text-anchor="middle" x="1017" y="-185.8" font-family="Arial" font-size="14.00" fill="#000000">port</text>
</g>
<!-- system_cpu_dtb_walker_cache_cpu_side -->
<g id="node12" class="node">
<title>system_cpu_dtb_walker_cache_cpu_side</title>
<path fill="#94918b" stroke="#000000" d="M1000.5,-40.5C1000.5,-40.5 1047.5,-40.5 1047.5,-40.5 1053.5,-40.5 1059.5,-46.5 1059.5,-52.5 1059.5,-52.5 1059.5,-64.5 1059.5,-64.5 1059.5,-70.5 1053.5,-76.5 1047.5,-76.5 1047.5,-76.5 1000.5,-76.5 1000.5,-76.5 994.5,-76.5 988.5,-70.5 988.5,-64.5 988.5,-64.5 988.5,-52.5 988.5,-52.5 988.5,-46.5 994.5,-40.5 1000.5,-40.5"/>
<text text-anchor="middle" x="1024" y="-54.8" font-family="Arial" font-size="14.00" fill="#000000">cpu_side</text>
</g>
<!-- system_cpu_mmu_dtb_walker_port&#45;&gt;system_cpu_dtb_walker_cache_cpu_side -->
<g id="edge5" class="edge">
<title>system_cpu_mmu_dtb_walker_port&#45;&gt;system_cpu_dtb_walker_cache_cpu_side</title>
<path fill="none" stroke="black" d="M1017.93,-171.37C1019.1,-149.78 1021.13,-112.41 1022.52,-86.85"/>
<polygon fill="black" stroke="black" points="1026.02,-86.88 1023.07,-76.7 1019.03,-86.5 1026.02,-86.88"/>
</g>
<!-- system_cpu_icache_mem_side -->
<g id="node7" class="node">
<title>system_cpu_icache_mem_side</title>
<path fill="#94918b" stroke="#000000" d="M514,-40.5C514,-40.5 570,-40.5 570,-40.5 576,-40.5 582,-46.5 582,-52.5 582,-52.5 582,-64.5 582,-64.5 582,-70.5 576,-76.5 570,-76.5 570,-76.5 514,-76.5 514,-76.5 508,-76.5 502,-70.5 502,-64.5 502,-64.5 502,-52.5 502,-52.5 502,-46.5 508,-40.5 514,-40.5"/>
<text text-anchor="middle" x="542" y="-54.8" font-family="Arial" font-size="14.00" fill="#000000">mem_side</text>
</g>
<!-- system_cpu_dcache_mem_side -->
<g id="node9" class="node">
<title>system_cpu_dcache_mem_side</title>
<path fill="#94918b" stroke="#000000" d="M320,-40.5C320,-40.5 376,-40.5 376,-40.5 382,-40.5 388,-46.5 388,-52.5 388,-52.5 388,-64.5 388,-64.5 388,-70.5 382,-76.5 376,-76.5 376,-76.5 320,-76.5 320,-76.5 314,-76.5 308,-70.5 308,-64.5 308,-64.5 308,-52.5 308,-52.5 308,-46.5 314,-40.5 320,-40.5"/>
<text text-anchor="middle" x="348" y="-54.8" font-family="Arial" font-size="14.00" fill="#000000">mem_side</text>
</g>
<!-- system_cpu_itb_walker_cache_mem_side -->
<g id="node11" class="node">
<title>system_cpu_itb_walker_cache_mem_side</title>
<path fill="#94918b" stroke="#000000" d="M708,-40.5C708,-40.5 764,-40.5 764,-40.5 770,-40.5 776,-46.5 776,-52.5 776,-52.5 776,-64.5 776,-64.5 776,-70.5 770,-76.5 764,-76.5 764,-76.5 708,-76.5 708,-76.5 702,-76.5 696,-70.5 696,-64.5 696,-64.5 696,-52.5 696,-52.5 696,-46.5 702,-40.5 708,-40.5"/>
<text text-anchor="middle" x="736" y="-54.8" font-family="Arial" font-size="14.00" fill="#000000">mem_side</text>
</g>
<!-- system_cpu_dtb_walker_cache_mem_side -->
<g id="node13" class="node">
<title>system_cpu_dtb_walker_cache_mem_side</title>
<path fill="#94918b" stroke="#000000" d="M902,-40.5C902,-40.5 958,-40.5 958,-40.5 964,-40.5 970,-46.5 970,-52.5 970,-52.5 970,-64.5 970,-64.5 970,-70.5 964,-76.5 958,-76.5 958,-76.5 902,-76.5 902,-76.5 896,-76.5 890,-70.5 890,-64.5 890,-64.5 890,-52.5 890,-52.5 890,-46.5 896,-40.5 902,-40.5"/>
<text text-anchor="middle" x="930" y="-54.8" font-family="Arial" font-size="14.00" fill="#000000">mem_side</text>
</g>
<!-- system_membus_cpu_side_ports&#45;&gt;system_cpu_icache_mem_side -->
<g id="edge6" class="edge">
<title>system_membus_cpu_side_ports&#45;&gt;system_cpu_icache_mem_side</title>
<path fill="none" stroke="black" d="M251.89,-165.78C262.73,-158.63 275.41,-151.45 288,-147 373.24,-116.87 410.72,-166.46 490,-123 509.24,-112.45 524.15,-91.62 532.98,-76.69"/>
<polygon fill="black" stroke="black" points="249.89,-162.9 243.63,-171.45 253.85,-168.67 249.89,-162.9"/>
</g>
<!-- system_membus_cpu_side_ports&#45;&gt;system_cpu_dcache_mem_side -->
<g id="edge7" class="edge">
<title>system_membus_cpu_side_ports&#45;&gt;system_cpu_dcache_mem_side</title>
<path fill="none" stroke="black" d="M246.01,-163.92C270.95,-138.39 309.32,-99.1 331.2,-76.7"/>
<polygon fill="black" stroke="black" points="243.22,-161.77 238.73,-171.37 248.22,-166.66 243.22,-161.77"/>
</g>
<!-- system_membus_cpu_side_ports&#45;&gt;system_cpu_itb_walker_cache_mem_side -->
<g id="edge8" class="edge">
<title>system_membus_cpu_side_ports&#45;&gt;system_cpu_itb_walker_cache_mem_side</title>
<path fill="none" stroke="black" d="M251.49,-165.54C262.37,-158.3 275.19,-151.12 288,-147 371.93,-120.03 605.5,-163.13 684,-123 703.67,-112.95 718.58,-91.79 727.29,-76.66"/>
<polygon fill="black" stroke="black" points="249.42,-162.71 243.21,-171.3 253.42,-168.46 249.42,-162.71"/>
</g>
<!-- system_membus_cpu_side_ports&#45;&gt;system_cpu_dtb_walker_cache_mem_side -->
<g id="edge9" class="edge">
<title>system_membus_cpu_side_ports&#45;&gt;system_cpu_dtb_walker_cache_mem_side</title>
<path fill="none" stroke="black" d="M251.19,-165.57C262.12,-158.25 275.05,-151.02 288,-147 413.32,-108.1 760.58,-181.57 878,-123 897.76,-113.14 912.66,-91.94 921.33,-76.75"/>
<polygon fill="black" stroke="black" points="249.06,-162.78 242.88,-171.39 253.08,-168.51 249.06,-162.78"/>
</g>
<!-- system_membus_mem_side_ports -->
<g id="node15" class="node">
<title>system_membus_mem_side_ports</title>
<path fill="#586070" stroke="#000000" d="M44,-171.5C44,-171.5 138,-171.5 138,-171.5 144,-171.5 150,-177.5 150,-183.5 150,-183.5 150,-195.5 150,-195.5 150,-201.5 144,-207.5 138,-207.5 138,-207.5 44,-207.5 44,-207.5 38,-207.5 32,-201.5 32,-195.5 32,-195.5 32,-183.5 32,-183.5 32,-177.5 38,-171.5 44,-171.5"/>
<text text-anchor="middle" x="91" y="-185.8" font-family="Arial" font-size="14.00" fill="#000000">mem_side_ports</text>
</g>
<!-- system_mem_ctrls_port -->
<g id="node16" class="node">
<title>system_mem_ctrls_port</title>
<path fill="#94918b" stroke="#000000" d="M76,-40.5C76,-40.5 106,-40.5 106,-40.5 112,-40.5 118,-46.5 118,-52.5 118,-52.5 118,-64.5 118,-64.5 118,-70.5 112,-76.5 106,-76.5 106,-76.5 76,-76.5 76,-76.5 70,-76.5 64,-70.5 64,-64.5 64,-64.5 64,-52.5 64,-52.5 64,-46.5 70,-40.5 76,-40.5"/>
<text text-anchor="middle" x="91" y="-54.8" font-family="Arial" font-size="14.00" fill="#000000">port</text>
</g>
<!-- system_membus_mem_side_ports&#45;&gt;system_mem_ctrls_port -->
<g id="edge10" class="edge">
<title>system_membus_mem_side_ports&#45;&gt;system_mem_ctrls_port</title>
<path fill="none" stroke="black" d="M91,-171.37C91,-149.78 91,-112.41 91,-86.85"/>
<polygon fill="black" stroke="black" points="94.5,-86.7 91,-76.7 87.5,-86.7 94.5,-86.7"/>
</g>
</g>
</svg>
